<?xml version="1.0" encoding="utf-8"?>

<!DOCTYPE svg PUBLIC "-//W3C//DTD SVG 1.1//EN" "http://www.w3.org/Graphics/SVG/1.1/DTD/svg11.dtd">
<!-- Uploaded to: SVG Repo, www.svgrepo.com, Generator: SVG Repo Mixer Tools -->
<svg height="800px" width="800px" version="1.1" id="_x32_" xmlns="http://www.w3.org/2000/svg" xmlns:xlink="http://www.w3.org/1999/xlink" 
	 viewBox="0 0 512 512"  xml:space="preserve">
<style type="text/css">
	.st0{fill:#000000;}
</style>
<g>
	<path class="st0" d="M478.827,33.155C458.405,12.724,430.009,0,398.793,0H274.199h-36.379H113.258
		C82.043,0,53.603,12.724,33.173,33.155C12.75,53.586,0.026,82.034,0.026,113.241v124.543v36.388v124.586
		c0,31.224,12.724,59.62,33.146,80.043C53.603,499.293,82.043,512,113.258,512h124.561h36.379h124.594
		c31.216,0,59.613-12.707,80.034-33.199c20.492-20.423,33.199-48.819,33.147-80.043V274.172v-36.388V113.241
		C512.026,82.034,499.319,53.586,478.827,33.155z M237.819,468.897H113.258c-19.457,0-36.862-7.828-49.577-20.535
		c-12.715-12.776-20.535-30.182-20.535-49.604V274.172h175.362l-71.758,74.491l19.414,18.698l71.656-74.379V468.897z
		 M237.819,217.068l-5.398-5.604c-0.628-8.034-2.155-24.526-5.362-42.241c-1.914-10.56-4.414-21.535-7.836-31.535
		c-1.706-5.009-3.664-9.776-6-14.215c-2.354-4.457-5.078-8.595-8.707-12.25c-12.56-12.561-29.155-18.914-45.621-18.88
		c-16.474-0.034-33.068,6.319-45.638,18.88c-12.578,12.56-18.922,29.155-18.905,45.654c-0.017,16.466,6.327,33.052,18.905,45.621
		c3.931,3.896,8.414,6.758,13.225,9.224c8.439,4.259,18.077,7.293,28.06,9.776c14.966,3.681,30.655,5.948,42.81,7.354
		c6.069,0.68,11.25,1.146,14.974,1.456c0.327,0.026,0.577,0.043,0.879,0.069l7.138,7.406H43.146V113.241
		c0-19.457,7.82-36.828,20.535-49.578c12.715-12.733,30.12-20.552,49.577-20.552h124.561V217.068z M204.535,202.508
		c-9.078-0.957-21.009-2.491-32.819-4.819c-8.983-1.758-17.854-4-25.043-6.604c-3.595-1.284-6.75-2.689-9.216-4.051
		c-2.482-1.345-4.25-2.673-5.138-3.586c-7.371-7.379-11-16.914-11.017-26.57c0.016-9.689,3.646-19.215,11-26.586h0.017
		c7.362-7.379,16.905-11,26.577-11c9.647,0,19.19,3.638,26.569,11c1.06,1.052,2.69,3.276,4.258,6.371
		c2.802,5.492,5.5,13.56,7.655,22.337c3.259,13.18,5.414,27.991,6.707,39.431C204.249,199.844,204.396,201.206,204.535,202.508z
		 M468.862,398.758c0,19.422-7.828,36.828-20.534,49.604c-12.724,12.706-30.129,20.535-49.535,20.535H274.199V293.689l70.974,73.672
		l19.406-18.698l-71.75-74.491h176.034V398.758z M468.862,237.784h-177.88l7.147-7.422c8.147-0.629,24.448-2.164,41.974-5.345
		c10.577-1.905,21.534-4.396,31.535-7.81c5-1.715,9.767-3.672,14.215-6c4.431-2.353,8.569-5.076,12.216-8.698
		c12.586-12.578,18.923-29.164,18.905-45.63c0.018-16.5-6.319-33.094-18.914-45.654h0.009
		c-12.561-12.561-29.164-18.914-45.621-18.88c-16.474-0.034-33.069,6.319-45.629,18.88c-3.905,3.931-6.776,8.414-9.242,13.25
		c-4.258,8.439-7.31,18.095-9.784,28.094c-3.672,14.94-5.939,30.638-7.328,42.793c-0.706,6.086-1.172,11.259-1.474,15
		c-0.034,0.414-0.051,0.742-0.086,1.112l-4.707,4.888V43.112h124.594c19.406,0,36.811,7.819,49.535,20.552
		c12.706,12.75,20.534,30.121,20.534,49.578V237.784z M306.785,202.517c0.957-9.061,2.482-20.966,4.81-32.776
		c1.768-9,4.009-17.888,6.621-25.077c1.302-3.596,2.69-6.751,4.043-9.233c1.362-2.466,2.698-4.251,3.603-5.139
		c7.371-7.362,16.905-11,26.586-11c9.656,0,19.198,3.621,26.57,11h0.009c7.362,7.371,10.991,16.897,11,26.586
		c-0.009,9.656-3.638,19.19-11.009,26.57c-1.035,1.06-3.258,2.681-6.38,4.242c-5.474,2.81-13.551,5.5-22.31,7.655
		c-13.172,3.242-27.974,5.414-39.413,6.724C309.482,202.232,308.103,202.378,306.785,202.517z"/>
</g>
</svg>